<svg width="187" height="41" viewBox="0 0 187 41" fill="none" xmlns="http://www.w3.org/2000/svg">
<g clip-path="url(#clip0_30_142)">
<path d="M57.9018 31.7377H62.5771L53.4808 9.06116H49.9001L40.7711 31.7377H45.3507L46.9712 27.5129H56.304L57.9018 31.7377ZM48.3904 23.8341L51.6615 15.2436L54.9075 23.8341H48.3904Z" fill="#333333"/>
<path d="M70.3268 32.0621C68.8328 32.0836 67.3589 31.7168 66.0492 30.9977C64.1675 29.9104 62.7945 28.1204 62.2321 26.0212C61.6696 23.922 61.9638 21.6853 63.0498 19.8029C63.779 18.5789 64.8213 17.5714 66.0693 16.884C67.376 16.1555 68.851 15.7825 70.3469 15.802C71.5107 15.7899 72.6641 16.0205 73.7338 16.4789C74.7558 16.9237 75.6692 17.5847 76.4111 18.4164L73.7011 21.1566C73.2952 20.7076 72.794 20.3551 72.2341 20.125C71.6347 19.8831 70.9933 19.7625 70.3469 19.7702C69.6179 19.7576 68.899 19.9419 68.266 20.3036C67.6618 20.6491 67.1606 21.1494 66.8141 21.753C66.4465 22.4192 66.2632 23.1714 66.2832 23.9321C66.2684 24.6914 66.4514 25.4415 66.8141 26.1087C67.1528 26.7272 67.6551 27.2408 68.266 27.5933C68.8998 27.9529 69.6183 28.1363 70.3469 28.1242C71.0055 28.1341 71.6591 28.0082 72.2669 27.7543C72.8319 27.5113 73.3337 27.142 73.7338 26.6748L76.4766 29.415C75.7097 30.2551 74.7754 30.9254 73.7338 31.3827C72.6585 31.8459 71.4976 32.0775 70.3268 32.0621Z" fill="#333333"/>
<path d="M88.4567 16.1571V17.6443C88.0223 17.1829 87.5116 16.7998 86.947 16.512C86.0157 16.0497 84.9871 15.8175 83.9476 15.8351C82.5932 15.8167 81.2617 16.1861 80.1103 16.8995C78.971 17.6074 78.0449 18.6109 77.4305 19.8032C76.7928 21.0943 76.4611 22.515 76.4611 23.955C76.4611 25.3951 76.7928 26.8158 77.4305 28.1069C78.0427 29.2919 78.9633 30.2898 80.0952 30.9955C81.2459 31.7109 82.5777 32.0812 83.9325 32.0625C84.9741 32.0804 86.0041 31.8419 86.9319 31.368C87.4947 31.0741 88.0048 30.6889 88.4416 30.2281V31.7379H92.6514V16.1571H88.4567ZM87.5861 26.9771C87.2196 27.3672 86.7736 27.6742 86.2783 27.8773C85.7831 28.0805 85.25 28.1751 84.715 28.1547C83.9964 28.1699 83.2876 27.9861 82.6668 27.6238C82.0747 27.2677 81.5937 26.7536 81.2778 26.1392C80.9323 25.4548 80.7596 24.6963 80.7746 23.9299C80.7621 23.1734 80.9348 22.4252 81.2778 21.7508C81.5938 21.1371 82.0748 20.6238 82.6668 20.2687C83.2874 19.9057 83.9962 19.721 84.715 19.7353C85.4445 19.7185 86.1645 19.9031 86.796 20.2687C87.3872 20.624 87.8674 21.1372 88.1825 21.7508C88.5255 22.4252 88.6982 23.1734 88.6857 23.9299C88.684 25.1796 88.3175 26.1962 87.5861 26.9796V26.9771Z" fill="#333333"/>
<path d="M105.675 8.427V17.5157C105.26 17.1167 104.786 16.7825 104.271 16.5244C103.333 16.0626 102.298 15.8306 101.252 15.8475C99.8806 15.8217 98.531 16.1912 97.3642 16.9118C96.233 17.6225 95.3101 18.6201 94.6894 19.803C94.0403 21.0908 93.7022 22.5128 93.7022 23.9549C93.7022 25.3969 94.0403 26.8189 94.6894 28.1067C95.3116 29.2969 96.2413 30.2987 97.3818 31.0079C98.5443 31.726 99.8881 32.0962 101.254 32.0748C102.303 32.0867 103.34 31.8432 104.274 31.3653C104.795 31.0923 105.273 30.7448 105.693 30.3336V31.7502H109.885V8.427H105.675ZM104.045 27.6387C103.416 27.987 102.708 28.1697 101.989 28.1697C101.27 28.1697 100.562 27.987 99.9333 27.6387C99.3339 27.287 98.8469 26.7721 98.5292 26.1541C98.1837 25.4697 98.0109 24.7113 98.0259 23.9448C98.0118 23.1937 98.1848 22.4509 98.5292 21.7833C98.8562 21.1538 99.354 20.6291 99.9655 20.2695C100.577 19.9099 101.277 19.7299 101.987 19.7502C102.705 19.7359 103.414 19.9205 104.035 20.2836C104.627 20.6387 105.108 21.152 105.424 21.7657C105.767 22.4401 105.94 23.1883 105.927 23.9448C105.942 24.7113 105.769 25.4697 105.424 26.1541C105.109 26.7625 104.631 27.272 104.045 27.6261V27.6387Z" fill="#333333"/>
<path d="M125.846 19.5917C125.208 18.4423 124.272 17.4862 123.136 16.8238C121.924 16.1341 120.547 15.7862 119.153 15.8173C117.694 15.7989 116.256 16.1726 114.991 16.8993C113.778 17.5903 112.765 18.5849 112.052 19.7855C111.496 20.7179 111.133 21.7527 110.986 22.8283C110.838 23.9039 110.909 24.9981 111.193 26.0459C111.477 27.0936 111.97 28.0734 112.641 28.9268C113.312 29.7802 114.148 30.4897 115.099 31.013C116.437 31.7299 117.937 32.0912 119.455 32.0623C120.662 32.0721 121.86 31.8411 122.977 31.3829C124.049 30.9443 124.998 30.2537 125.745 29.3699L123.262 26.8864C122.803 27.4139 122.229 27.8282 121.583 28.0967C120.897 28.3734 120.162 28.5103 119.422 28.4993C118.612 28.5177 117.811 28.3233 117.1 27.9357C116.438 27.5642 115.904 27.0021 115.567 26.3227C115.425 26.0381 115.312 25.7396 115.23 25.432L126.616 25.4043C126.694 25.08 126.754 24.7515 126.795 24.4204C126.827 24.1364 126.843 23.8508 126.842 23.5649C126.858 22.1768 126.515 20.8081 125.846 19.5917ZM116.959 19.8836C117.623 19.4951 118.383 19.2991 119.153 19.3175C119.857 19.2965 120.554 19.4707 121.166 19.8207C121.721 20.1616 122.159 20.6625 122.424 21.2575C122.57 21.5801 122.68 21.9176 122.754 22.264L115.205 22.2866C115.279 22.0047 115.381 21.7308 115.509 21.4688C115.827 20.81 116.331 20.2588 116.959 19.8836Z" fill="#333333"/>
<path d="M151.63 18.6407C151.109 17.7547 150.348 17.0335 149.436 16.5597C148.456 16.0774 147.378 15.8293 146.287 15.835C145.195 15.8407 144.12 16.1 143.145 16.5924C142.404 16.9853 141.753 17.5297 141.235 18.1903C140.757 17.5143 140.13 16.9566 139.404 16.5597C138.502 16.072 137.492 15.8226 136.467 15.835C135.401 15.8174 134.347 16.0665 133.402 16.5597C132.928 16.8134 132.493 17.1347 132.111 17.5134V16.1571H127.887V31.7378H132.111V22.5459C132.095 22.0034 132.229 21.467 132.499 20.9959C132.751 20.5722 133.121 20.2306 133.563 20.012C134.033 19.7821 134.55 19.6657 135.073 19.6723C135.847 19.6483 136.601 19.918 137.184 20.4272C137.474 20.6947 137.701 21.0229 137.848 21.3883C137.996 21.7537 138.062 22.1473 138.04 22.5409V31.7328H142.267V22.5409C142.251 21.9984 142.385 21.462 142.655 20.9909C142.909 20.5634 143.285 20.221 143.734 20.007C144.204 19.7779 144.721 19.6616 145.244 19.6673C146.018 19.6436 146.773 19.9132 147.357 20.4222C147.647 20.69 147.873 21.0182 148.021 21.3836C148.169 21.7489 148.234 22.1423 148.213 22.5358V31.7277H152.438V21.8564C152.465 20.7311 152.186 19.6196 151.63 18.6407Z" fill="#E61E1E"/>
<path d="M168.381 19.5917C167.743 18.4423 166.806 17.4862 165.671 16.8238C164.458 16.1341 163.08 15.7863 161.685 15.8173C160.254 15.8 158.844 16.1589 157.596 16.858C156.347 17.557 155.304 18.5717 154.572 19.8006C154.015 20.7331 153.652 21.7681 153.505 22.8438C153.357 23.9196 153.428 25.014 153.713 26.0619C153.997 27.1097 154.49 28.0895 155.162 28.9427C155.833 29.796 156.67 30.5052 157.621 31.0281C158.959 31.745 160.459 32.1063 161.977 32.0774C163.185 32.0871 164.382 31.8562 165.5 31.398C166.57 30.9587 167.52 30.2683 168.268 29.385L165.784 26.9015C165.325 27.4281 164.75 27.8422 164.106 28.1118C163.419 28.3883 162.684 28.5252 161.944 28.5144C161.134 28.5331 160.333 28.3387 159.622 27.9507C158.96 27.5793 158.426 27.0172 158.089 26.3378C157.947 26.0532 157.834 25.7547 157.752 25.4471L169.138 25.4194C169.217 25.0954 169.276 24.7668 169.314 24.4355C169.347 24.1515 169.364 23.8659 169.365 23.58C169.387 22.1879 169.048 20.8137 168.381 19.5917ZM159.493 19.8836C160.157 19.4952 160.916 19.2991 161.685 19.3175C162.39 19.2966 163.086 19.4708 163.698 19.8207C164.252 20.1623 164.691 20.663 164.956 21.2575C165.101 21.5805 165.211 21.9179 165.286 22.264L157.737 22.2866C157.811 22.0047 157.913 21.7308 158.041 21.4688C158.359 20.8091 158.864 20.2577 159.493 19.8836Z" fill="#E61E1E"/>
<path d="M185.308 19.5917C184.669 18.4423 183.733 17.4862 182.598 16.8238C181.385 16.1341 180.009 15.7862 178.614 15.8173C177.155 15.7991 175.718 16.1728 174.452 16.8993C173.208 17.6009 172.176 18.6263 171.468 19.8668C170.759 21.1072 170.399 22.5164 170.426 23.9449C170.399 25.3903 170.77 26.8154 171.498 28.0643C172.226 29.3132 173.284 30.3377 174.556 31.0256C175.894 31.7418 177.394 32.1031 178.911 32.0749C180.119 32.0846 181.316 31.8537 182.434 31.3955C183.505 30.9575 184.455 30.2669 185.202 29.3825L182.718 26.899C182.26 27.4265 181.685 27.8407 181.04 28.1093C180.354 28.3862 179.619 28.5231 178.879 28.5119C178.068 28.5302 177.268 28.3359 176.556 27.9482C175.895 27.5768 175.361 27.0147 175.024 26.3353C174.881 26.0507 174.768 25.7522 174.686 25.4446L186.073 25.4169C186.151 25.0926 186.21 24.7641 186.251 24.433C186.283 24.149 186.299 23.8633 186.299 23.5775C186.32 22.1853 185.979 20.8116 185.308 19.5917ZM176.42 19.8836C177.085 19.4951 177.845 19.2991 178.614 19.3175C179.319 19.2965 180.016 19.4707 180.627 19.8207C181.182 20.1616 181.621 20.6625 181.885 21.2575C182.032 21.58 182.144 21.9175 182.218 22.264L174.669 22.2866C174.744 22.0047 174.847 21.7307 174.976 21.4688C175.291 20.8099 175.793 20.2585 176.42 19.8836Z" fill="#FFB725"/>
<path d="M12.3448 18.4113L6.17239 23.006L0 27.6032L1.37388 29.4476L10.5381 22.6235L7.93126 33.7756L10.7948 34.4449L14.2873 19.4983L12.3448 18.4113Z" fill="#FFB725"/>
<path d="M17.7573 13.208L10.6916 10.1608L3.62341 7.1161L2.71252 9.22725L13.2053 13.7565L2.24701 17.0805L3.10003 19.8937L17.7975 15.4349L17.7573 13.208Z" fill="#FD9E14"/>
<path d="M24.9741 15.2863L24.0757 7.64189L23.1774 0L20.8927 0.269227L22.2288 11.6151L13.8673 3.78948L11.8542 5.93334L23.0667 16.4312L24.9741 15.2863Z" fill="#FA850B"/>
<path d="M26.7828 22.576L32.9502 17.9737L39.1201 13.3715L37.7437 11.527L28.587 18.3612L31.1787 7.20663L28.3177 6.53981L24.8403 21.5116L26.7828 22.576Z" fill="#D2D2D2"/>
<path d="M21.3756 27.8023L28.4463 30.8394L35.5171 33.8765L36.4254 31.7654L25.9276 27.2562L36.8834 23.9197L36.0278 21.1065L21.3354 25.5804L21.3756 27.8023Z" fill="#EE4A16"/>
<path d="M14.1689 25.7162L15.0773 33.3581L15.9831 41L18.2679 40.7283L16.9192 29.3825L25.2908 37.2005L27.3038 35.0516L16.0787 24.5688L14.1689 25.7162Z" fill="#E61E1E"/>
</g>
<defs>
<clipPath id="clip0_30_142">
<rect width="186.292" height="41" fill="white"/>
</clipPath>
</defs>
</svg>
